<mxfile host="app.diagrams.net" modified="2023-08-22T07:22:04.539Z" agent="Mozilla/5.0 (X11; Ubuntu; Linux x86_64; rv:108.0) Gecko/20100101 Firefox/108.0" etag="bXs0ZHXETN4Bn8LxeJDj" version="21.6.8" type="github">
  <diagram name="Page-1" id="_PpsL9-FMSNgoxNYlkyy">
    <mxGraphModel dx="1058" dy="615" grid="1" gridSize="10" guides="1" tooltips="1" connect="1" arrows="1" fold="1" page="1" pageScale="1" pageWidth="850" pageHeight="1100" math="0" shadow="0">
      <root>
        <mxCell id="0" />
        <mxCell id="1" parent="0" />
        <mxCell id="bBCOCLnor8MAKiS44g4d-1" value="" style="shape=umlActor;verticalLabelPosition=bottom;verticalAlign=top;html=1;outlineConnect=0;" vertex="1" parent="1">
          <mxGeometry x="50" y="200" width="90" height="160" as="geometry" />
        </mxCell>
        <mxCell id="bBCOCLnor8MAKiS44g4d-5" style="edgeStyle=orthogonalEdgeStyle;rounded=0;orthogonalLoop=1;jettySize=auto;html=1;" edge="1" parent="1">
          <mxGeometry relative="1" as="geometry">
            <mxPoint x="260" y="370" as="targetPoint" />
            <mxPoint x="260" y="370" as="sourcePoint" />
          </mxGeometry>
        </mxCell>
        <mxCell id="bBCOCLnor8MAKiS44g4d-4" value="" style="rounded=0;whiteSpace=wrap;html=1;" vertex="1" parent="1">
          <mxGeometry x="220" y="60" width="440" height="580" as="geometry" />
        </mxCell>
        <mxCell id="bBCOCLnor8MAKiS44g4d-6" value="" style="ellipse;whiteSpace=wrap;html=1;fontStyle=1" vertex="1" parent="1">
          <mxGeometry x="340" y="140" width="200" height="80" as="geometry" />
        </mxCell>
        <mxCell id="bBCOCLnor8MAKiS44g4d-7" value="" style="shape=umlActor;verticalLabelPosition=bottom;verticalAlign=top;html=1;outlineConnect=0;" vertex="1" parent="1">
          <mxGeometry x="730" y="210" width="100" height="160" as="geometry" />
        </mxCell>
        <mxCell id="bBCOCLnor8MAKiS44g4d-9" value="GAME TEBAK ANGKA" style="text;html=1;strokeColor=none;fillColor=none;align=center;verticalAlign=middle;whiteSpace=wrap;rounded=0;" vertex="1" parent="1">
          <mxGeometry x="325" y="80" width="230" height="60" as="geometry" />
        </mxCell>
        <mxCell id="bBCOCLnor8MAKiS44g4d-11" value="" style="ellipse;whiteSpace=wrap;html=1;" vertex="1" parent="1">
          <mxGeometry x="340" y="390" width="200" height="90" as="geometry" />
        </mxCell>
        <mxCell id="bBCOCLnor8MAKiS44g4d-13" value="Random angka" style="text;html=1;strokeColor=none;fillColor=none;align=center;verticalAlign=middle;whiteSpace=wrap;rounded=0;" vertex="1" parent="1">
          <mxGeometry x="372.5" y="160" width="135" height="40" as="geometry" />
        </mxCell>
        <mxCell id="bBCOCLnor8MAKiS44g4d-14" value="Tebak angka" style="text;html=1;strokeColor=none;fillColor=none;align=center;verticalAlign=middle;whiteSpace=wrap;rounded=0;" vertex="1" parent="1">
          <mxGeometry x="350" y="420" width="157.5" height="30" as="geometry" />
        </mxCell>
        <mxCell id="bBCOCLnor8MAKiS44g4d-16" value="&lt;div&gt;player2&lt;/div&gt;&lt;div&gt;(user)&lt;br&gt;&lt;/div&gt;" style="text;html=1;strokeColor=none;fillColor=none;align=center;verticalAlign=middle;whiteSpace=wrap;rounded=0;" vertex="1" parent="1">
          <mxGeometry x="750" y="370" width="60" height="30" as="geometry" />
        </mxCell>
        <mxCell id="bBCOCLnor8MAKiS44g4d-20" value="&lt;div&gt;player1&lt;/div&gt;&lt;div&gt;(komputer)&lt;br&gt;&lt;/div&gt;" style="text;html=1;strokeColor=none;fillColor=none;align=center;verticalAlign=middle;whiteSpace=wrap;rounded=0;" vertex="1" parent="1">
          <mxGeometry x="65" y="360" width="60" height="30" as="geometry" />
        </mxCell>
        <mxCell id="bBCOCLnor8MAKiS44g4d-27" value="" style="endArrow=none;html=1;rounded=0;" edge="1" parent="1" target="bBCOCLnor8MAKiS44g4d-7">
          <mxGeometry width="50" height="50" relative="1" as="geometry">
            <mxPoint x="530" y="410" as="sourcePoint" />
            <mxPoint x="720" y="320" as="targetPoint" />
            <Array as="points">
              <mxPoint x="530" y="410" />
              <mxPoint x="640" y="410" />
            </Array>
          </mxGeometry>
        </mxCell>
        <mxCell id="bBCOCLnor8MAKiS44g4d-28" value="" style="endArrow=none;html=1;rounded=0;entryX=0;entryY=0.5;entryDx=0;entryDy=0;" edge="1" parent="1" target="bBCOCLnor8MAKiS44g4d-6">
          <mxGeometry width="50" height="50" relative="1" as="geometry">
            <mxPoint x="110" y="280" as="sourcePoint" />
            <mxPoint x="460" y="330" as="targetPoint" />
            <Array as="points">
              <mxPoint x="110" y="280" />
              <mxPoint x="230" y="190" />
              <mxPoint x="340" y="180" />
            </Array>
          </mxGeometry>
        </mxCell>
      </root>
    </mxGraphModel>
  </diagram>
</mxfile>
